<svg width="360" height="420" style="fill:#000000" version="1.1" viewBox="0 0 36 42" xmlns="http://www.w3.org/2000/svg">
 <defs>
  <linearGradient id="linearGradient2543" x2="36" y1="21" y2="21" gradientUnits="userSpaceOnUse">
   <stop style="stop-color:#180076" offset="0"/>
   <stop style="stop-color:#2cc000" offset="1"/>
  </linearGradient>
 </defs>
 <path d="m9.5 0c-5.068 0-9.2106 3.9931-9.4746 8.9961 1.975-2.868 5.2181-4.7888 8.9121-4.9688 0.185-0.018 0.3725-0.027344 0.5625-0.027344h13.154l-9.134-4zm0 6c-5.238 0-9.5 4.262-9.5 9.5s4.262 9.5 9.5 9.5h16c3.584 0 6.5 2.916 6.5 6.5s-2.916 6.5-6.5 6.5h-12.67l8.8752 4h3.7953c5.79 0 10.5-4.71 10.5-10.5s-4.71-10.5-10.5-10.5h-16c-3.033 0-5.5-2.468-5.5-5.5s2.467-5.5 5.5-5.5h26.576l-9.2782-4zm20.326 24.338c-1.15 1.03-2.6642 1.6621-4.3262 1.6621h-25.5l8.5508 4h16.949c2.481 0 4.5-2.019 4.5-4.5 0-0.406-0.07083-0.78911-0.17383-1.1621z" style="fill:url(#linearGradient2543)"/>
</svg>
